<svg width="269" height="24" viewBox="0 0 269 24" fill="none" xmlns="http://www.w3.org/2000/svg">
<path d="M17.2643 8.17394C17.0629 6.97803 16.6282 5.88985 16.0134 4.93097C15.3986 5.31883 14.8579 5.82521 14.4233 6.42855C14.7837 7.08577 15.0381 7.79685 15.1653 8.55103C15.3986 9.90855 15.1123 11.7294 14.3597 13.8518C13.9569 14.9616 13.4268 16.1575 12.7802 17.4073C12.5152 17.9244 12.2396 18.4092 11.9745 18.8725C11.4975 19.6913 11.0417 20.424 10.6495 21.0165C9.759 20.3486 8.60352 19.4328 7.42685 18.3661C4.42685 15.5972 2.58233 12.936 2.22191 10.8674C1.91449 9.11128 2.30671 7.33357 3.31378 5.86831C4.32085 4.40304 5.82614 3.42261 7.55405 3.12094C7.93568 3.05629 8.3279 3.0132 8.70953 3.0132C9.94981 3.0132 11.1689 3.37951 12.2184 4.05827C12.6848 3.48725 13.2148 2.98088 13.8085 2.54992C12.3562 1.47252 10.5859 0.858398 8.70953 0.858398C8.2113 0.858398 7.70246 0.901494 7.18303 0.99846C2.45512 1.83883 -0.70388 6.42855 0.133574 11.2445C1.23605 17.5904 11.1795 24.0009 11.1795 24.0009C11.1795 24.0009 12.0699 22.8158 13.183 21.0165C13.236 20.9304 13.289 20.8334 13.3526 20.7472C13.395 20.6718 13.448 20.5964 13.4904 20.5102C13.5964 20.3378 13.7025 20.1546 13.8085 19.9607C13.8933 19.8206 13.9781 19.6698 14.0629 19.519C14.0841 19.4759 14.1159 19.4328 14.1371 19.3897C14.1901 19.3035 14.2325 19.2173 14.2855 19.1311C14.3173 19.0772 14.3385 19.0234 14.3703 18.9695C14.4127 18.8833 14.4551 18.8079 14.4975 18.7217C14.5187 18.6786 14.5505 18.6355 14.5717 18.5816C14.7201 18.3015 14.8685 18.0214 15.0063 17.7305C15.0593 17.6335 15.1017 17.5365 15.1547 17.4288C15.1971 17.3426 15.2396 17.2456 15.282 17.1595C15.3774 16.9547 15.4834 16.7393 15.5788 16.5238C16.8085 13.7872 17.7095 10.7274 17.2643 8.17394Z" fill="white"/>
<path d="M20.4329 0.99846C19.9241 0.901494 19.4152 0.858398 18.9064 0.858398C17.4329 0.858398 16.0124 1.24626 14.7721 1.92502C14.6873 1.96812 14.6131 2.01122 14.5389 2.06509C14.4647 2.10818 14.3905 2.15128 14.3269 2.19437C14.2421 2.24824 14.1467 2.31289 14.0619 2.36676C13.9983 2.40985 13.9347 2.45295 13.8711 2.49605C13.8605 2.50682 13.8499 2.50682 13.8393 2.51759C13.7651 2.57146 13.7015 2.62533 13.6273 2.6792C13.5637 2.73307 13.4895 2.78694 13.4259 2.84081C13.4153 2.85159 13.4047 2.86236 13.3941 2.87314C13.3304 2.92701 13.2774 2.9701 13.2138 3.02397C13.2032 3.03475 13.1926 3.04552 13.182 3.04552C13.1184 3.09939 13.0654 3.15326 13.0018 3.20713C12.9912 3.2179 12.9806 3.22868 12.97 3.22868C12.917 3.28255 12.8534 3.33642 12.8004 3.40106L12.7898 3.41184C12.7262 3.47648 12.6626 3.54112 12.599 3.60577C12.599 3.60577 12.599 3.60577 12.599 3.61654C12.546 3.67041 12.5036 3.71351 12.4612 3.76738C12.3976 3.8428 12.334 3.91821 12.2704 3.99363C12.2492 4.02595 12.2174 4.0475 12.1962 4.07982C12.175 4.11214 12.1432 4.14447 12.122 4.17679C12.1008 4.20911 12.069 4.24143 12.0478 4.27376C12.0054 4.32763 11.9736 4.37072 11.9312 4.42459C11.91 4.45691 11.8782 4.48923 11.857 4.52156C11.8252 4.56465 11.7933 4.60775 11.7615 4.66162C11.6979 4.74781 11.6449 4.834 11.5813 4.93097C10.9771 5.88985 10.5425 6.97803 10.3411 8.17394C9.89582 10.7274 10.7969 13.7872 12.0372 16.5346C12.5142 15.5972 12.917 14.6922 13.235 13.8411C12.4718 11.7294 12.1962 9.90856 12.4294 8.54026C12.5566 7.7753 12.8216 7.06422 13.1714 6.41778C13.8817 5.1249 15.0054 4.11214 16.341 3.53035C17.1255 3.19636 17.9948 3.00242 18.8958 3.00242C19.2774 3.00242 19.6697 3.03475 20.0513 3.11016C21.7792 3.42261 23.2951 4.39227 24.3022 5.85753C25.3092 7.3228 25.7015 9.10051 25.394 10.8567C25.0336 12.936 23.1785 15.5865 20.1679 18.3446C18.9912 19.422 17.8357 20.3378 16.9453 20.995C16.3834 20.1331 15.6732 19.0018 14.9948 17.7197C14.6025 18.5062 14.1891 19.2604 13.7969 19.9391C15.175 22.3202 16.4258 23.9794 16.4258 23.9794C16.4258 23.9794 26.3905 17.5904 27.493 11.2445C28.3198 6.42855 25.1608 1.83883 20.4329 0.99846Z" fill="white"/>
<path d="M36.8625 20V3.84651H44.1293C44.8699 3.84651 45.5333 3.96993 46.1195 4.21679C46.7213 4.44821 47.2304 4.78763 47.647 5.23506C48.0635 5.66705 48.3798 6.19162 48.5958 6.80875C48.8118 7.42588 48.9198 8.10473 48.9198 8.84529C48.9198 9.60128 48.8118 10.2878 48.5958 10.905C48.3798 11.5067 48.0635 12.0313 47.647 12.4787C47.2304 12.9107 46.7213 13.2501 46.1195 13.4969C45.5333 13.7284 44.8699 13.8441 44.1293 13.8441H39.9173V20H36.8625ZM39.9173 11.2058H43.8516C44.4379 11.2058 44.9007 11.0516 45.2401 10.743C45.5796 10.419 45.7493 9.96385 45.7493 9.37757V8.31302C45.7493 7.72674 45.5796 7.27932 45.2401 6.97075C44.9007 6.66218 44.4379 6.5079 43.8516 6.5079H39.9173V11.2058ZM59.842 20C59.194 20 58.6772 19.8149 58.2914 19.4446C57.9212 19.0589 57.6897 18.5497 57.5972 17.9172H57.4583C57.2577 18.704 56.8489 19.298 56.2318 19.6991C55.6146 20.0849 54.8509 20.2777 53.9406 20.2777C52.7064 20.2777 51.7575 19.9537 51.0941 19.3057C50.4307 18.6577 50.099 17.7937 50.099 16.7138C50.099 15.4641 50.5464 14.5384 51.4412 13.9367C52.3361 13.3195 53.6089 13.011 55.2598 13.011H57.3195V12.1315C57.3195 11.4527 57.142 10.9281 56.7872 10.5578C56.4323 10.1876 55.8615 10.0024 55.0746 10.0024C54.3804 10.0024 53.8172 10.1567 53.3852 10.4653C52.9687 10.7584 52.6138 11.1133 52.3207 11.5298L50.5618 9.95614C51.0093 9.26186 51.6032 8.70644 52.3438 8.28987C53.0844 7.85788 54.0641 7.64188 55.2829 7.64188C56.9183 7.64188 58.1603 8.01216 59.0089 8.75272C59.8574 9.49329 60.2817 10.5578 60.2817 11.9464V17.6395H61.4851V20H59.842ZM54.9358 18.1255C55.5992 18.1255 56.1623 17.9789 56.6252 17.6857C57.088 17.3926 57.3195 16.9606 57.3195 16.3898V14.7929H55.4218C53.8789 14.7929 53.1075 15.2866 53.1075 16.2741V16.6675C53.1075 17.1612 53.2618 17.5315 53.5704 17.7783C53.8944 18.0097 54.3495 18.1255 54.9358 18.1255ZM67.3329 20C66.3147 20 65.5355 19.7377 64.9955 19.2132C64.471 18.6732 64.2087 17.9095 64.2087 16.922V10.2801H62.4267V7.91959H63.3524C63.7998 7.91959 64.1007 7.81931 64.255 7.61874C64.4247 7.40274 64.5096 7.08646 64.5096 6.6699V4.61021H67.1709V7.91959H69.6472V10.2801H67.1709V17.6395H69.4621V20H67.3329ZM71.9851 2.87452H74.9474V9.93299H75.0631C75.3099 9.285 75.6957 8.74501 76.2202 8.31302C76.7602 7.86559 77.5008 7.64188 78.4419 7.64188C79.6916 7.64188 80.6482 8.05073 81.3116 8.86844C81.975 9.68614 82.3067 10.851 82.3067 12.363V20H79.3445V12.6638C79.3445 11.7998 79.1902 11.1518 78.8816 10.7198C78.573 10.2878 78.0639 10.0718 77.3542 10.0718C77.0456 10.0718 76.7448 10.1181 76.4516 10.2107C76.1739 10.2878 75.9194 10.4113 75.6879 10.581C75.4719 10.7353 75.2945 10.9358 75.1557 11.1827C75.0168 11.4141 74.9474 11.6918 74.9474 12.0158V20H71.9851V2.87452ZM91.8158 20.2777C90.7512 20.2777 89.7869 20.108 88.9229 19.7686C88.0744 19.4137 87.3415 18.8892 86.7244 18.1949C86.1227 17.5006 85.6598 16.6443 85.3359 15.6261C85.0119 14.5924 84.8499 13.3967 84.8499 12.039C84.8499 10.6813 85.0119 9.47786 85.3359 8.42873C85.6598 7.36417 86.1227 6.47704 86.7244 5.76734C87.3415 5.0422 88.0744 4.4945 88.9229 4.12422C89.7869 3.75393 90.7512 3.56879 91.8158 3.56879C93.266 3.56879 94.4694 3.87736 95.426 4.4945C96.3826 5.11163 97.1463 6.04505 97.7171 7.29474L95.102 8.6833C94.8706 7.95816 94.4926 7.3796 93.968 6.94761C93.4435 6.50018 92.726 6.27647 91.8158 6.27647C90.6741 6.27647 89.7638 6.66218 89.0849 7.4336C88.4215 8.20502 88.0898 9.285 88.0898 10.6736V13.2192C88.0898 14.6232 88.4215 15.7032 89.0849 16.4592C89.7638 17.1998 90.6741 17.57 91.8158 17.57C92.726 17.57 93.4666 17.3232 94.0374 16.8295C94.6237 16.3358 95.048 15.7263 95.3103 15.0012L97.7865 16.4592C97.2003 17.6626 96.4211 18.6037 95.4491 19.2826C94.4772 19.946 93.266 20.2777 91.8158 20.2777ZM99.9759 2.87452H102.938V9.93299H103.054C103.301 9.285 103.686 8.74501 104.211 8.31302C104.751 7.86559 105.492 7.64188 106.433 7.64188C107.682 7.64188 108.639 8.05073 109.302 8.86844C109.966 9.68614 110.297 10.851 110.297 12.363V20H107.335V12.6638C107.335 11.7998 107.181 11.1518 106.872 10.7198C106.564 10.2878 106.055 10.0718 105.345 10.0718C105.036 10.0718 104.736 10.1181 104.442 10.2107C104.165 10.2878 103.91 10.4113 103.679 10.581C103.463 10.7353 103.285 10.9358 103.146 11.1827C103.008 11.4141 102.938 11.6918 102.938 12.0158V20H99.9759V2.87452ZM118.233 20.2777C117.338 20.2777 116.536 20.1311 115.826 19.838C115.132 19.5294 114.538 19.1052 114.044 18.5652C113.566 18.0097 113.195 17.3463 112.933 16.5749C112.671 15.7881 112.54 14.9086 112.54 13.9367C112.54 12.9801 112.663 12.1161 112.91 11.3447C113.172 10.5733 113.543 9.91757 114.021 9.37757C114.499 8.82215 115.085 8.39787 115.78 8.10473C116.474 7.79617 117.261 7.64188 118.14 7.64188C119.081 7.64188 119.899 7.80388 120.593 8.12788C121.288 8.45187 121.858 8.89158 122.306 9.447C122.753 10.0024 123.085 10.6504 123.301 11.391C123.532 12.1161 123.648 12.8952 123.648 13.7284V14.7004H115.618V15.0012C115.618 15.8806 115.865 16.5903 116.358 17.1303C116.852 17.6549 117.585 17.9172 118.557 17.9172C119.297 17.9172 119.899 17.7629 120.362 17.4543C120.84 17.1458 121.264 16.7523 121.635 16.2741L123.232 18.056C122.738 18.7503 122.059 19.298 121.195 19.6991C120.346 20.0849 119.359 20.2777 118.233 20.2777ZM118.187 9.86357C117.4 9.86357 116.775 10.1258 116.312 10.6504C115.849 11.175 115.618 11.8538 115.618 12.687V12.8721H120.57V12.6638C120.57 11.8307 120.362 11.1595 119.945 10.6504C119.544 10.1258 118.958 9.86357 118.187 9.86357ZM130.79 20.2777C129.895 20.2777 129.101 20.1311 128.407 19.838C127.712 19.5449 127.126 19.1206 126.648 18.5652C126.185 18.0097 125.83 17.3463 125.583 16.5749C125.336 15.7881 125.213 14.9086 125.213 13.9367C125.213 12.9647 125.336 12.093 125.583 11.3215C125.83 10.5501 126.185 9.89442 126.648 9.35443C127.126 8.79901 127.712 8.37473 128.407 8.08159C129.101 7.78845 129.895 7.64188 130.79 7.64188C132.009 7.64188 133.012 7.91188 133.799 8.45187C134.601 8.99186 135.18 9.74014 135.535 10.6967L133.105 11.7844C132.966 11.2753 132.703 10.8587 132.318 10.5347C131.947 10.1953 131.438 10.0256 130.79 10.0256C129.957 10.0256 129.332 10.2878 128.916 10.8124C128.515 11.337 128.314 12.0235 128.314 12.8721V15.0706C128.314 15.9192 128.515 16.6058 128.916 17.1303C129.332 17.6395 129.957 17.894 130.79 17.894C131.5 17.894 132.048 17.7166 132.433 17.3618C132.819 16.9915 133.12 16.5363 133.336 15.9963L135.604 17.084C135.203 18.1486 134.593 18.9509 133.776 19.4909C132.958 20.0154 131.963 20.2777 130.79 20.2777ZM137.657 2.87452H140.619V13.1961H140.735L142.331 11.0207L145.039 7.91959H148.395L144.229 12.5944L148.834 20H145.317L142.216 14.5846L140.619 16.3203V20H137.657V2.87452Z" fill="white"/>
<path d="M156.396 20V3.84651H165.629V5.07306H157.784V11.1827H165.097V12.4092H157.784V20H156.396ZM172.419 20.2777C171.632 20.2777 170.922 20.1389 170.29 19.8611C169.657 19.5834 169.117 19.1823 168.67 18.6577C168.222 18.1177 167.875 17.462 167.628 16.6906C167.381 15.9192 167.258 15.0475 167.258 14.0755C167.258 13.1035 167.381 12.2395 167.628 11.4835C167.875 10.7121 168.222 10.0641 168.67 9.53957C169.117 8.99958 169.657 8.59073 170.29 8.31302C170.922 8.01988 171.632 7.87331 172.419 7.87331C173.206 7.87331 173.915 8.01988 174.548 8.31302C175.18 8.59073 175.72 8.99958 176.168 9.53957C176.615 10.0641 176.962 10.7121 177.209 11.4835C177.456 12.2395 177.58 13.1035 177.58 14.0755C177.58 15.0475 177.456 15.9192 177.209 16.6906C176.962 17.462 176.615 18.1177 176.168 18.6577C175.72 19.1823 175.18 19.5834 174.548 19.8611C173.915 20.1389 173.206 20.2777 172.419 20.2777ZM172.419 19.0974C173.576 19.0974 174.486 18.7349 175.15 18.0097C175.828 17.2846 176.168 16.2201 176.168 14.8161V13.3349C176.168 11.9464 175.828 10.8896 175.15 10.1644C174.486 9.42386 173.576 9.05358 172.419 9.05358C171.262 9.05358 170.344 9.41614 169.665 10.1413C169.001 10.8664 168.67 11.931 168.67 13.3349V14.8161C168.67 16.2046 169.001 17.2692 169.665 18.0097C170.344 18.7349 171.262 19.0974 172.419 19.0974ZM188.105 18.1255H188.012C187.904 18.4032 187.758 18.6732 187.573 18.9354C187.387 19.1977 187.156 19.4292 186.878 19.6297C186.601 19.8149 186.269 19.9691 185.883 20.0926C185.513 20.216 185.073 20.2777 184.564 20.2777C183.299 20.2777 182.312 19.892 181.602 19.1206C180.892 18.3337 180.537 17.2152 180.537 15.7649V8.15102H181.856V15.5103C181.856 16.7292 182.119 17.6317 182.643 18.218C183.168 18.8043 183.924 19.0974 184.911 19.0974C185.328 19.0974 185.721 19.0434 186.091 18.9354C186.477 18.8274 186.817 18.6654 187.11 18.4494C187.418 18.2335 187.657 17.9635 187.827 17.6395C188.012 17.3 188.105 16.9066 188.105 16.4592V8.15102H189.424V20H188.105V18.1255ZM193.508 20V8.15102H194.827V10.0256H194.897C195.159 9.40843 195.568 8.89929 196.123 8.49816C196.679 8.08159 197.435 7.87331 198.391 7.87331C199.656 7.87331 200.636 8.26673 201.33 9.05358C202.04 9.825 202.395 10.9358 202.395 12.3861V20H201.076V12.6175C201.076 11.4141 200.813 10.5193 200.289 9.93299C199.78 9.34672 199.031 9.05358 198.044 9.05358C197.627 9.05358 197.226 9.10758 196.841 9.21558C196.455 9.32357 196.108 9.48557 195.799 9.70157C195.506 9.91757 195.267 10.1953 195.082 10.5347C194.912 10.8587 194.827 11.2367 194.827 11.6687V20H193.508ZM213.977 18.1023H213.908C213.599 18.7657 213.144 19.298 212.542 19.6991C211.956 20.0849 211.208 20.2777 210.297 20.2777C208.77 20.2777 207.574 19.7377 206.71 18.6577C205.846 17.5777 205.414 16.0503 205.414 14.0755C205.414 12.1007 205.846 10.5733 206.71 9.49329C207.574 8.4133 208.77 7.87331 210.297 7.87331C211.208 7.87331 211.964 8.07388 212.565 8.47501C213.167 8.86072 213.615 9.38529 213.908 10.0487H213.977V2.87452H215.296V20H213.977V18.1023ZM210.598 19.0974C211.061 19.0974 211.493 19.0357 211.894 18.9123C212.311 18.7889 212.673 18.6114 212.982 18.38C213.291 18.1332 213.53 17.8477 213.699 17.5237C213.885 17.1843 213.977 16.8063 213.977 16.3898V11.6918C213.977 11.3061 213.885 10.9513 213.699 10.6273C213.53 10.3033 213.291 10.0256 212.982 9.79414C212.673 9.56271 212.311 9.38529 211.894 9.26186C211.493 9.123 211.061 9.05358 210.598 9.05358C209.41 9.05358 208.485 9.43157 207.821 10.1876C207.158 10.9436 206.826 11.9618 206.826 13.2424V14.9086C206.826 16.1892 207.158 17.2075 207.821 17.9635C208.485 18.7194 209.41 19.0974 210.598 19.0974ZM227.521 20C227.011 20 226.641 19.8689 226.41 19.6066C226.178 19.3443 226.047 18.9894 226.016 18.542V18.1255H225.901C225.638 18.7889 225.206 19.3134 224.605 19.6991C224.003 20.0849 223.239 20.2777 222.314 20.2777C221.064 20.2777 220.1 19.9769 219.421 19.3752C218.742 18.758 218.402 17.894 218.402 16.7832C218.402 15.7341 218.773 14.9009 219.513 14.2838C220.269 13.6667 221.504 13.3581 223.216 13.3581H225.947V11.9695C225.947 10.0101 224.936 9.03043 222.915 9.03043C222.128 9.03043 221.473 9.20015 220.948 9.53957C220.424 9.86357 219.999 10.3341 219.675 10.9513L218.842 10.257C219.166 9.56271 219.66 8.99186 220.323 8.54444C221.002 8.09702 221.882 7.87331 222.962 7.87331C224.35 7.87331 225.415 8.22045 226.155 8.91472C226.896 9.609 227.266 10.581 227.266 11.8307V18.8429H228.863V20H227.521ZM222.499 19.1437C222.977 19.1437 223.424 19.082 223.841 18.9586C224.257 18.8352 224.62 18.6654 224.929 18.4494C225.253 18.218 225.499 17.948 225.669 17.6395C225.854 17.3155 225.947 16.9529 225.947 16.5518V14.3532H223.17C221.982 14.3532 221.118 14.5461 220.578 14.9318C220.053 15.3021 219.791 15.8189 219.791 16.4823V17.0378C219.791 17.732 220.038 18.2566 220.532 18.6114C221.025 18.9663 221.681 19.1437 222.499 19.1437ZM233.429 20C232.951 20 232.588 19.8689 232.341 19.6066C232.094 19.3443 231.971 18.9894 231.971 18.542V9.30815H229.911V8.15102H231.253C231.577 8.15102 231.793 8.0893 231.901 7.96588C232.025 7.82702 232.087 7.58788 232.087 7.24846V4.84163H233.29V8.15102H235.974V9.30815H233.29V18.8429H235.789V20H233.429ZM239.561 4.9342C239.252 4.9342 239.021 4.85706 238.866 4.70278C238.728 4.5485 238.658 4.34793 238.658 4.10107V3.86965C238.658 3.62279 238.728 3.42222 238.866 3.26794C239.021 3.11366 239.252 3.03652 239.561 3.03652C239.869 3.03652 240.093 3.11366 240.232 3.26794C240.386 3.42222 240.463 3.62279 240.463 3.86965V4.10107C240.463 4.34793 240.386 4.5485 240.232 4.70278C240.093 4.85706 239.869 4.9342 239.561 4.9342ZM238.913 8.15102H240.232V20H238.913V8.15102ZM248.521 20.2777C247.734 20.2777 247.024 20.1389 246.392 19.8611C245.759 19.5834 245.219 19.1823 244.772 18.6577C244.324 18.1177 243.977 17.462 243.73 16.6906C243.483 15.9192 243.36 15.0475 243.36 14.0755C243.36 13.1035 243.483 12.2395 243.73 11.4835C243.977 10.7121 244.324 10.0641 244.772 9.53957C245.219 8.99958 245.759 8.59073 246.392 8.31302C247.024 8.01988 247.734 7.87331 248.521 7.87331C249.307 7.87331 250.017 8.01988 250.65 8.31302C251.282 8.59073 251.822 8.99958 252.27 9.53957C252.717 10.0641 253.064 10.7121 253.311 11.4835C253.558 12.2395 253.681 13.1035 253.681 14.0755C253.681 15.0475 253.558 15.9192 253.311 16.6906C253.064 17.462 252.717 18.1177 252.27 18.6577C251.822 19.1823 251.282 19.5834 250.65 19.8611C250.017 20.1389 249.307 20.2777 248.521 20.2777ZM248.521 19.0974C249.678 19.0974 250.588 18.7349 251.251 18.0097C251.93 17.2846 252.27 16.2201 252.27 14.8161V13.3349C252.27 11.9464 251.93 10.8896 251.251 10.1644C250.588 9.42386 249.678 9.05358 248.521 9.05358C247.364 9.05358 246.446 9.41614 245.767 10.1413C245.103 10.8664 244.772 11.931 244.772 13.3349V14.8161C244.772 16.2046 245.103 17.2692 245.767 18.0097C246.446 18.7349 247.364 19.0974 248.521 19.0974ZM256.801 20V8.15102H258.12V10.0256H258.19C258.452 9.40843 258.861 8.89929 259.416 8.49816C259.972 8.08159 260.728 7.87331 261.684 7.87331C262.949 7.87331 263.929 8.26673 264.623 9.05358C265.333 9.825 265.688 10.9358 265.688 12.3861V20H264.369V12.6175C264.369 11.4141 264.106 10.5193 263.582 9.93299C263.073 9.34672 262.325 9.05358 261.337 9.05358C260.921 9.05358 260.519 9.10758 260.134 9.21558C259.748 9.32357 259.401 9.48557 259.092 9.70157C258.799 9.91757 258.56 10.1953 258.375 10.5347C258.205 10.8587 258.12 11.2367 258.12 11.6687V20H256.801Z" fill="white"/>
</svg>
