<svg width="264" height="24" viewBox="0 0 264 24" fill="none" xmlns="http://www.w3.org/2000/svg">
<path d="M17.001 8.23142C16.8027 7.05381 16.3747 5.98229 15.7693 5.03808C15.1639 5.42001 14.6315 5.91863 14.2035 6.51274C14.5584 7.1599 14.809 7.8601 14.9342 8.60274C15.1639 9.93949 14.882 11.7324 14.1409 13.8224C13.7442 14.9152 13.2223 16.0928 12.5856 17.3234C12.3246 17.8327 12.0532 18.3101 11.7922 18.7663C11.3225 19.5726 10.8737 20.294 10.4874 20.8775C9.61061 20.2197 8.47282 19.3179 7.31415 18.2676C4.36007 15.5411 2.54378 12.9206 2.18887 10.8837C1.88615 9.15441 2.27238 7.40391 3.26403 5.96107C4.25568 4.51823 5.73794 3.5528 7.43941 3.25575C7.8152 3.19209 8.20142 3.14965 8.5772 3.14965C9.7985 3.14965 10.9989 3.51036 12.0323 4.17874C12.4916 3.61646 13.0135 3.11783 13.5981 2.69346C12.168 1.63255 10.4248 1.02783 8.5772 1.02783C8.0866 1.02783 7.58555 1.07027 7.07407 1.16575C2.41851 1.99326 -0.692147 6.51274 0.132491 11.255C1.21809 17.5038 11.0094 23.8162 11.0094 23.8162C11.0094 23.8162 11.8862 22.6492 12.9822 20.8775C13.0344 20.7926 13.0866 20.6971 13.1492 20.6123C13.191 20.538 13.2432 20.4637 13.2849 20.3789C13.3893 20.2091 13.4937 20.0288 13.5981 19.8378C13.6816 19.6999 13.7651 19.5513 13.8486 19.4028C13.8695 19.3604 13.9008 19.3179 13.9217 19.2755C13.9739 19.1906 14.0156 19.1058 14.0678 19.0209C14.0991 18.9678 14.12 18.9148 14.1513 18.8618C14.1931 18.7769 14.2348 18.7026 14.2766 18.6177C14.2975 18.5753 14.3288 18.5329 14.3497 18.4798C14.4958 18.204 14.6419 17.9282 14.7776 17.6417C14.8298 17.5462 14.8716 17.4507 14.9238 17.3447C14.9655 17.2598 15.0073 17.1643 15.049 17.0794C15.143 16.8778 15.2474 16.6657 15.3413 16.4535C16.5522 13.7588 17.4395 10.7458 17.001 8.23142Z" fill="white"/>
<path d="M20.1223 1.16526C19.6212 1.06978 19.1202 1.02734 18.6191 1.02734C17.1682 1.02734 15.7694 1.40927 14.5481 2.07765C14.4646 2.12008 14.3916 2.16252 14.3185 2.21556C14.2454 2.258 14.1724 2.30044 14.1097 2.34287C14.0262 2.39592 13.9323 2.45957 13.8488 2.51262C13.7861 2.55506 13.7235 2.59749 13.6609 2.63993C13.6504 2.65054 13.64 2.65054 13.6296 2.66115C13.5565 2.71419 13.4939 2.76724 13.4208 2.82028C13.3582 2.87333 13.2851 2.92638 13.2225 2.97942C13.212 2.99003 13.2016 3.00064 13.1911 3.01125C13.1285 3.06429 13.0763 3.10673 13.0137 3.15978C13.0033 3.17038 12.9928 3.18099 12.9824 3.18099C12.9197 3.23404 12.8676 3.28709 12.8049 3.34013C12.7945 3.35074 12.784 3.36135 12.7736 3.36135C12.7214 3.41439 12.6588 3.46744 12.6066 3.53109L12.5962 3.5417C12.5335 3.60536 12.4709 3.66901 12.4083 3.73267C12.4083 3.73267 12.4083 3.73267 12.4083 3.74328C12.3561 3.79632 12.3143 3.83876 12.2726 3.8918C12.2099 3.96607 12.1473 4.04033 12.0847 4.1146C12.0638 4.14642 12.0325 4.16764 12.0116 4.19947C11.9907 4.2313 11.9594 4.26312 11.9385 4.29495C11.9177 4.32678 11.8863 4.35861 11.8655 4.39043C11.8237 4.44348 11.7924 4.48591 11.7506 4.53896C11.7298 4.57079 11.6984 4.60262 11.6776 4.63444C11.6463 4.67688 11.6149 4.71932 11.5836 4.77236C11.521 4.85723 11.4688 4.94211 11.4062 5.03759C10.8112 5.9818 10.3832 7.05332 10.1849 8.23093C9.74645 10.7453 10.6337 13.7583 11.855 16.4636C12.3248 15.5406 12.7214 14.6494 13.0346 13.8113C12.283 11.7319 12.0116 9.939 12.2412 8.59164C12.3665 7.8384 12.6275 7.13819 12.9719 6.50165C13.6713 5.22855 14.7778 4.2313 16.093 3.6584C16.8655 3.32952 17.7214 3.13856 18.6087 3.13856C18.9845 3.13856 19.3707 3.17038 19.7465 3.24465C21.448 3.55231 22.9407 4.50713 23.9323 5.94997C24.924 7.39281 25.3102 9.14332 25.0075 10.8726C24.6526 12.9202 22.8258 15.53 19.8613 18.2459C18.7027 19.3068 17.5649 20.2086 16.688 20.8558C16.1348 20.007 15.4354 18.8931 14.7674 17.6306C14.3811 18.4051 13.974 19.1477 13.5878 19.8161C14.9448 22.1607 16.1765 23.7945 16.1765 23.7945C16.1765 23.7945 25.9887 17.5033 27.0743 11.2545C27.8885 6.51226 24.7778 1.99277 20.1223 1.16526Z" fill="white"/>
<path d="M36.2966 20.1836V4.27731H43.4522C44.1814 4.27731 44.8347 4.39884 45.412 4.64192C46.0045 4.8698 46.5058 5.20403 46.916 5.64461C47.3262 6.06999 47.6376 6.58653 47.8503 7.19422C48.063 7.80191 48.1694 8.47037 48.1694 9.1996C48.1694 9.94402 48.063 10.6201 47.8503 11.2278C47.6376 11.8203 47.3262 12.3368 46.916 12.7774C46.5058 13.2028 46.0045 13.537 45.412 13.7801C44.8347 14.0079 44.1814 14.1219 43.4522 14.1219H39.3047V20.1836H36.2966ZM39.3047 11.524H43.1787C43.756 11.524 44.2118 11.3721 44.546 11.0682C44.8802 10.7492 45.0474 10.301 45.0474 9.72373V8.67546C45.0474 8.09816 44.8802 7.65758 44.546 7.35374C44.2118 7.04989 43.756 6.89797 43.1787 6.89797H39.3047V11.524ZM58.9244 20.1836C58.2863 20.1836 57.7774 20.0013 57.3976 19.6367C57.033 19.2569 56.8051 18.7555 56.7139 18.1326H56.5772C56.3797 18.9074 55.9771 19.4923 55.3694 19.8873C54.7617 20.2672 54.0097 20.4571 53.1134 20.4571C51.898 20.4571 50.9637 20.138 50.3104 19.4999C49.6571 18.8619 49.3305 18.0111 49.3305 16.9476C49.3305 15.7171 49.7711 14.8055 50.6522 14.213C51.5334 13.6053 52.7867 13.3015 54.4123 13.3015H56.4405V12.4355C56.4405 11.7671 56.2658 11.2505 55.9164 10.8859C55.5669 10.5213 55.0048 10.339 54.23 10.339C53.5464 10.339 52.9918 10.4909 52.5665 10.7948C52.1563 11.0834 51.8068 11.4329 51.5182 11.843L49.7863 10.2934C50.2269 9.60979 50.8118 9.06286 51.541 8.65267C52.2702 8.22729 53.2349 8.0146 54.4351 8.0146C56.0455 8.0146 57.2685 8.37921 58.104 9.10844C58.9396 9.83767 59.3574 10.8859 59.3574 12.2532V17.8592H60.5424V20.1836H58.9244ZM54.0933 18.3377C54.7465 18.3377 55.3011 18.1934 55.7568 17.9048C56.2126 17.6161 56.4405 17.1907 56.4405 16.6286V15.0562H54.5718C53.0526 15.0562 52.293 15.5424 52.293 16.5147V16.9021C52.293 17.3882 52.4449 17.7528 52.7488 17.9959C53.0678 18.2238 53.516 18.3377 54.0933 18.3377ZM66.3007 20.1836C65.298 20.1836 64.5308 19.9253 63.9991 19.4088C63.4826 18.8771 63.2243 18.125 63.2243 17.1527V10.6125H61.4696V8.28806H62.3811C62.8217 8.28806 63.118 8.18931 63.2699 7.99181C63.437 7.77912 63.5205 7.46768 63.5205 7.05749V5.02932H66.1412V8.28806H68.5796V10.6125H66.1412V17.8592H68.3973V20.1836H66.3007ZM70.8817 3.32019H73.7986V10.2706H73.9126C74.1557 9.63257 74.5355 9.10085 75.052 8.67546C75.5837 8.23489 76.313 8.0146 77.2397 8.0146C78.4703 8.0146 79.4122 8.41719 80.0654 9.22238C80.7187 10.0276 81.0453 11.1746 81.0453 12.6634V20.1836H78.1284V12.9597C78.1284 12.1089 77.9765 11.4708 77.6727 11.0455C77.3688 10.6201 76.8675 10.4074 76.1686 10.4074C75.8648 10.4074 75.5685 10.453 75.2799 10.5441C75.0064 10.6201 74.7558 10.7416 74.5279 10.9087C74.3152 11.0606 74.1405 11.2581 74.0037 11.5012C73.867 11.7291 73.7986 12.0026 73.7986 12.3216V20.1836H70.8817V3.32019ZM90.4089 20.4571C89.3606 20.4571 88.4111 20.2899 87.5603 19.9557C86.7248 19.6063 86.0031 19.0898 85.3954 18.4061C84.8029 17.7224 84.3472 16.8793 84.0281 15.8766C83.7091 14.8587 83.5496 13.6813 83.5496 12.3444C83.5496 11.0075 83.7091 9.82248 84.0281 8.7894C84.3472 7.74114 84.8029 6.86758 85.3954 6.16874C86.0031 5.4547 86.7248 4.91538 87.5603 4.55077C88.4111 4.18615 89.3606 4.00384 90.4089 4.00384C91.8369 4.00384 93.0219 4.30769 93.9639 4.91538C94.9058 5.52307 95.6578 6.4422 96.2199 7.67277L93.6448 9.04008C93.4169 8.32604 93.0447 7.75633 92.5282 7.33095C92.0117 6.89037 91.3052 6.67008 90.4089 6.67008C89.2846 6.67008 88.3883 7.04989 87.7198 7.8095C87.0666 8.56912 86.7399 9.63257 86.7399 10.9999V13.5066C86.7399 14.8891 87.0666 15.9526 87.7198 16.697C88.3883 17.4262 89.2846 17.7908 90.4089 17.7908C91.3052 17.7908 92.0344 17.5477 92.5966 17.0616C93.1739 16.5754 93.5917 15.9753 93.8499 15.2613L96.2883 16.697C95.711 17.882 94.9438 18.8087 93.9867 19.4772C93.0295 20.1304 91.8369 20.4571 90.4089 20.4571ZM98.4441 3.32019H101.361V10.2706H101.475C101.718 9.63257 102.098 9.10085 102.614 8.67546C103.146 8.23489 103.875 8.0146 104.802 8.0146C106.033 8.0146 106.975 8.41719 107.628 9.22238C108.281 10.0276 108.608 11.1746 108.608 12.6634V20.1836H105.691V12.9597C105.691 12.1089 105.539 11.4708 105.235 11.0455C104.931 10.6201 104.43 10.4074 103.731 10.4074C103.427 10.4074 103.131 10.453 102.842 10.5441C102.569 10.6201 102.318 10.7416 102.09 10.9087C101.878 11.0606 101.703 11.2581 101.566 11.5012C101.429 11.7291 101.361 12.0026 101.361 12.3216V20.1836H98.4441V3.32019ZM116.422 20.4571C115.54 20.4571 114.75 20.3127 114.052 20.0241C113.368 19.7202 112.783 19.3024 112.297 18.7707C111.826 18.2238 111.461 17.5705 111.203 16.8109C110.945 16.0361 110.816 15.1702 110.816 14.213C110.816 13.2711 110.937 12.4204 111.18 11.6607C111.439 10.9011 111.803 10.2555 112.274 9.72373C112.745 9.17681 113.322 8.75902 114.006 8.47037C114.69 8.16652 115.465 8.0146 116.33 8.0146C117.257 8.0146 118.062 8.17412 118.746 8.49316C119.43 8.81219 119.992 9.24517 120.432 9.79209C120.873 10.339 121.2 10.9771 121.412 11.7063C121.64 12.4204 121.754 13.1876 121.754 14.0079V14.9651H113.847V15.2613C113.847 16.1273 114.09 16.8261 114.576 17.3578C115.062 17.8744 115.784 18.1326 116.741 18.1326C117.47 18.1326 118.062 17.9807 118.518 17.6769C118.989 17.373 119.407 16.9856 119.772 16.5147L121.344 18.2694C120.858 18.953 120.189 19.4923 119.339 19.8873C118.503 20.2672 117.531 20.4571 116.422 20.4571ZM116.376 10.2023C115.601 10.2023 114.986 10.4606 114.53 10.9771C114.074 11.4936 113.847 12.1621 113.847 12.9825V13.1648H118.723V12.9597C118.723 12.1393 118.518 11.4784 118.108 10.9771C117.713 10.4606 117.136 10.2023 116.376 10.2023ZM128.787 20.4571C127.906 20.4571 127.123 20.3127 126.44 20.0241C125.756 19.7354 125.179 19.3176 124.708 18.7707C124.252 18.2238 123.903 17.5705 123.66 16.8109C123.417 16.0361 123.295 15.1702 123.295 14.213C123.295 13.2559 123.417 12.3976 123.66 11.638C123.903 10.8783 124.252 10.2327 124.708 9.70094C125.179 9.15402 125.756 8.73623 126.44 8.44758C127.123 8.15893 127.906 8.0146 128.787 8.0146C129.987 8.0146 130.975 8.28046 131.749 8.81219C132.539 9.34392 133.109 10.0807 133.459 11.0227L131.066 12.0937C130.929 11.5924 130.671 11.1822 130.291 10.8631C129.926 10.5289 129.425 10.3618 128.787 10.3618C127.967 10.3618 127.351 10.6201 126.941 11.1366C126.546 11.6531 126.349 12.3292 126.349 13.1648V15.3297C126.349 16.1652 126.546 16.8413 126.941 17.3578C127.351 17.8592 127.967 18.1099 128.787 18.1099C129.486 18.1099 130.025 17.9351 130.405 17.5857C130.785 17.2211 131.081 16.7729 131.294 16.2412L133.527 17.3123C133.132 18.3605 132.532 19.1505 131.727 19.6822C130.922 20.1988 129.942 20.4571 128.787 20.4571ZM135.548 3.32019H138.465V13.4838H138.579L140.151 11.3417L142.818 8.28806H146.122L142.02 12.8913L146.555 20.1836H143.091L140.038 14.8511L138.465 16.5602V20.1836H135.548V3.32019Z" fill="white"/>
<path d="M154.002 20.1836V4.27731H163.095V5.48509H155.37V11.5012H162.571V12.709H155.37V20.1836H154.002ZM169.78 20.4571C169.005 20.4571 168.306 20.3203 167.684 20.0469C167.061 19.7734 166.529 19.3784 166.088 18.8619C165.648 18.3301 165.306 17.6845 165.063 16.9249C164.82 16.1652 164.698 15.3069 164.698 14.3498C164.698 13.3927 164.82 12.5419 165.063 11.7975C165.306 11.0379 165.648 10.3998 166.088 9.88325C166.529 9.35152 167.061 8.94892 167.684 8.67546C168.306 8.38681 169.005 8.24248 169.78 8.24248C170.555 8.24248 171.254 8.38681 171.877 8.67546C172.5 8.94892 173.031 9.35152 173.472 9.88325C173.912 10.3998 174.254 11.0379 174.497 11.7975C174.74 12.5419 174.862 13.3927 174.862 14.3498C174.862 15.3069 174.74 16.1652 174.497 16.9249C174.254 17.6845 173.912 18.3301 173.472 18.8619C173.031 19.3784 172.5 19.7734 171.877 20.0469C171.254 20.3203 170.555 20.4571 169.78 20.4571ZM169.78 19.2948C170.92 19.2948 171.816 18.9378 172.469 18.2238C173.138 17.5098 173.472 16.4615 173.472 15.079V13.6205C173.472 12.2532 173.138 11.2126 172.469 10.4985C171.816 9.7693 170.92 9.40469 169.78 9.40469C168.641 9.40469 167.737 9.76171 167.068 10.4757C166.415 11.1898 166.088 12.238 166.088 13.6205V15.079C166.088 16.4463 166.415 17.4946 167.068 18.2238C167.737 18.9378 168.641 19.2948 169.78 19.2948ZM185.226 18.3377H185.135C185.029 18.6112 184.884 18.8771 184.702 19.1353C184.52 19.3936 184.292 19.6215 184.018 19.819C183.745 20.0013 183.418 20.1532 183.039 20.2747C182.674 20.3963 182.241 20.4571 181.74 20.4571C180.494 20.4571 179.522 20.0772 178.823 19.3176C178.124 18.5428 177.774 17.4414 177.774 16.0133V8.51594H179.073V15.7626C179.073 16.9628 179.332 17.8516 179.848 18.4289C180.365 19.0062 181.109 19.2948 182.081 19.2948C182.492 19.2948 182.879 19.2417 183.244 19.1353C183.623 19.029 183.958 18.8695 184.246 18.6568C184.55 18.4441 184.786 18.1782 184.953 17.8592C185.135 17.5249 185.226 17.1375 185.226 16.697V8.51594H186.525V20.1836H185.226V18.3377ZM190.547 20.1836V8.51594H191.846V10.3618H191.914C192.172 9.75411 192.575 9.25277 193.122 8.85777C193.669 8.44758 194.413 8.24248 195.355 8.24248C196.601 8.24248 197.566 8.62989 198.249 9.40469C198.948 10.1643 199.297 11.2581 199.297 12.6862V20.1836H197.999V12.9141C197.999 11.7291 197.74 10.848 197.224 10.2706C196.722 9.69334 195.986 9.40469 195.013 9.40469C194.603 9.40469 194.208 9.45786 193.828 9.56421C193.448 9.67055 193.107 9.83007 192.803 10.0428C192.514 10.2555 192.279 10.5289 192.096 10.8631C191.929 11.1822 191.846 11.5544 191.846 11.9798V20.1836H190.547ZM210.703 18.3149H210.634C210.33 18.9682 209.882 19.4923 209.29 19.8873C208.712 20.2672 207.976 20.4571 207.079 20.4571C205.575 20.4571 204.398 19.9253 203.547 18.8619C202.696 17.7984 202.271 16.2944 202.271 14.3498C202.271 12.4052 202.696 10.9011 203.547 9.83767C204.398 8.77421 205.575 8.24248 207.079 8.24248C207.976 8.24248 208.72 8.43998 209.312 8.83498C209.905 9.21479 210.346 9.73132 210.634 10.3846H210.703V3.32019H212.001V20.1836H210.703V18.3149ZM207.375 19.2948C207.831 19.2948 208.257 19.2341 208.652 19.1125C209.062 18.991 209.419 18.8163 209.723 18.5884C210.026 18.3453 210.262 18.0643 210.429 17.7452C210.611 17.411 210.703 17.0388 210.703 16.6286V12.0026C210.703 11.6228 210.611 11.2733 210.429 10.9543C210.262 10.6353 210.026 10.3618 209.723 10.1339C209.419 9.90603 209.062 9.73132 208.652 9.60979C208.257 9.47306 207.831 9.40469 207.375 9.40469C206.206 9.40469 205.294 9.7769 204.641 10.5213C203.988 11.2657 203.661 12.2684 203.661 13.5294V15.1702C203.661 16.4311 203.988 17.4338 204.641 18.1782C205.294 18.9226 206.206 19.2948 207.375 19.2948ZM224.039 20.1836C223.537 20.1836 223.173 20.0545 222.945 19.7962C222.717 19.5379 222.588 19.1885 222.557 18.7479V18.3377H222.444C222.185 18.991 221.76 19.5075 221.167 19.8873C220.575 20.2672 219.823 20.4571 218.911 20.4571C217.681 20.4571 216.731 20.1608 216.063 19.5683C215.394 18.9606 215.06 18.1099 215.06 17.016C215.06 15.9829 215.425 15.1626 216.154 14.5549C216.898 13.9472 218.114 13.6433 219.8 13.6433H222.489V12.276C222.489 10.3466 221.494 9.3819 219.504 9.3819C218.729 9.3819 218.083 9.54902 217.567 9.88325C217.05 10.2023 216.632 10.6656 216.313 11.2733L215.493 10.5897C215.812 9.90603 216.298 9.34392 216.952 8.90335C217.62 8.46277 218.486 8.24248 219.549 8.24248C220.917 8.24248 221.965 8.58431 222.694 9.26796C223.423 9.95161 223.788 10.9087 223.788 12.1393V19.0442H225.36V20.1836H224.039ZM219.094 19.3404C219.565 19.3404 220.005 19.2797 220.415 19.1581C220.826 19.0366 221.183 18.8695 221.486 18.6568C221.805 18.4289 222.049 18.163 222.216 17.8592C222.398 17.5401 222.489 17.1831 222.489 16.7881V14.6232H219.755C218.585 14.6232 217.734 14.8131 217.202 15.1929C216.686 15.5576 216.427 16.0665 216.427 16.7198V17.2667C216.427 17.9503 216.67 18.4669 217.157 18.8163C217.643 19.1657 218.288 19.3404 219.094 19.3404ZM229.857 20.1836C229.386 20.1836 229.029 20.0545 228.785 19.7962C228.542 19.5379 228.421 19.1885 228.421 18.7479V9.65536H226.393V8.51594H227.714C228.033 8.51594 228.246 8.45517 228.352 8.33364C228.474 8.19691 228.535 7.96143 228.535 7.6272V5.25721H229.72V8.51594H232.363V9.65536H229.72V19.0442H232.181V20.1836H229.857ZM235.895 5.34836C235.591 5.34836 235.363 5.2724 235.211 5.12048C235.074 4.96855 235.006 4.77105 235.006 4.52798V4.30009C235.006 4.05702 235.074 3.85952 235.211 3.7076C235.363 3.55567 235.591 3.47971 235.895 3.47971C236.198 3.47971 236.419 3.55567 236.555 3.7076C236.707 3.85952 236.783 4.05702 236.783 4.30009V4.52798C236.783 4.77105 236.707 4.96855 236.555 5.12048C236.419 5.2724 236.198 5.34836 235.895 5.34836ZM235.256 8.51594H236.555V20.1836H235.256V8.51594ZM244.717 20.4571C243.943 20.4571 243.244 20.3203 242.621 20.0469C241.998 19.7734 241.466 19.3784 241.026 18.8619C240.585 18.3301 240.243 17.6845 240 16.9249C239.757 16.1652 239.636 15.3069 239.636 14.3498C239.636 13.3927 239.757 12.5419 240 11.7975C240.243 11.0379 240.585 10.3998 241.026 9.88325C241.466 9.35152 241.998 8.94892 242.621 8.67546C243.244 8.38681 243.943 8.24248 244.717 8.24248C245.492 8.24248 246.191 8.38681 246.814 8.67546C247.437 8.94892 247.969 9.35152 248.409 9.88325C248.85 10.3998 249.192 11.0379 249.435 11.7975C249.678 12.5419 249.799 13.3927 249.799 14.3498C249.799 15.3069 249.678 16.1652 249.435 16.9249C249.192 17.6845 248.85 18.3301 248.409 18.8619C247.969 19.3784 247.437 19.7734 246.814 20.0469C246.191 20.3203 245.492 20.4571 244.717 20.4571ZM244.717 19.2948C245.857 19.2948 246.753 18.9378 247.406 18.2238C248.075 17.5098 248.409 16.4615 248.409 15.079V13.6205C248.409 12.2532 248.075 11.2126 247.406 10.4985C246.753 9.7693 245.857 9.40469 244.717 9.40469C243.578 9.40469 242.674 9.76171 242.006 10.4757C241.352 11.1898 241.026 12.238 241.026 13.6205V15.079C241.026 16.4463 241.352 17.4946 242.006 18.2238C242.674 18.9378 243.578 19.2948 244.717 19.2948ZM252.871 20.1836V8.51594H254.17V10.3618H254.238C254.497 9.75411 254.899 9.25277 255.446 8.85777C255.993 8.44758 256.738 8.24248 257.68 8.24248C258.925 8.24248 259.89 8.62989 260.574 9.40469C261.272 10.1643 261.622 11.2581 261.622 12.6862V20.1836H260.323V12.9141C260.323 11.7291 260.065 10.848 259.548 10.2706C259.047 9.69334 258.31 9.40469 257.338 9.40469C256.928 9.40469 256.533 9.45786 256.153 9.56421C255.773 9.67055 255.431 9.83007 255.127 10.0428C254.839 10.2555 254.603 10.5289 254.421 10.8631C254.254 11.1822 254.17 11.5544 254.17 11.9798V20.1836H252.871Z" fill="white"/>
</svg>
